<mxfile host="app.diagrams.net" modified="2021-05-13T09:24:21.361Z" agent="5.0 (Windows)" etag="tAnnQp3VzsSljXwoiN-p" version="14.6.12" type="github">
  <diagram id="FGYdgbkp0mOFsazNOWkl" name="Page-1">
    <mxGraphModel dx="1221" dy="644" grid="0" gridSize="10" guides="1" tooltips="1" connect="1" arrows="1" fold="1" page="1" pageScale="1" pageWidth="827" pageHeight="1169" math="0" shadow="0">
      <root>
        <mxCell id="0" />
        <mxCell id="1" parent="0" />
        <mxCell id="hP1Rm07FLvNimL8762Uq-2" value="User" style="shape=umlLifeline;perimeter=lifelinePerimeter;container=1;collapsible=0;recursiveResize=0;rounded=0;shadow=0;strokeWidth=1;" vertex="1" parent="1">
          <mxGeometry x="70" y="230" width="100" height="300" as="geometry" />
        </mxCell>
        <mxCell id="hP1Rm07FLvNimL8762Uq-3" value="" style="points=[];perimeter=orthogonalPerimeter;rounded=0;shadow=0;strokeWidth=1;" vertex="1" parent="hP1Rm07FLvNimL8762Uq-2">
          <mxGeometry x="45" y="70" width="10" height="190" as="geometry" />
        </mxCell>
        <mxCell id="hP1Rm07FLvNimL8762Uq-4" value="WebController" style="shape=umlLifeline;perimeter=lifelinePerimeter;container=1;collapsible=0;recursiveResize=0;rounded=0;shadow=0;strokeWidth=1;" vertex="1" parent="1">
          <mxGeometry x="260" y="230" width="100" height="300" as="geometry" />
        </mxCell>
        <mxCell id="hP1Rm07FLvNimL8762Uq-5" value="" style="points=[];perimeter=orthogonalPerimeter;rounded=0;shadow=0;strokeWidth=1;" vertex="1" parent="hP1Rm07FLvNimL8762Uq-4">
          <mxGeometry x="45" y="70" width="10" height="190" as="geometry" />
        </mxCell>
        <mxCell id="hP1Rm07FLvNimL8762Uq-6" value="" style="endArrow=classic;html=1;" edge="1" parent="hP1Rm07FLvNimL8762Uq-4">
          <mxGeometry width="50" height="50" relative="1" as="geometry">
            <mxPoint x="55" y="90" as="sourcePoint" />
            <mxPoint x="55" y="110" as="targetPoint" />
            <Array as="points">
              <mxPoint x="100" y="90" />
              <mxPoint x="100" y="110" />
            </Array>
          </mxGeometry>
        </mxCell>
        <mxCell id="hP1Rm07FLvNimL8762Uq-7" value="addEquipmentServiceImpl" style="shape=umlLifeline;perimeter=lifelinePerimeter;container=1;collapsible=0;recursiveResize=0;rounded=0;shadow=0;strokeWidth=1;" vertex="1" parent="1">
          <mxGeometry x="430" y="230" width="140" height="300" as="geometry" />
        </mxCell>
        <mxCell id="hP1Rm07FLvNimL8762Uq-8" value="" style="points=[];perimeter=orthogonalPerimeter;rounded=0;shadow=0;strokeWidth=1;" vertex="1" parent="hP1Rm07FLvNimL8762Uq-7">
          <mxGeometry x="55" y="70" width="10" height="190" as="geometry" />
        </mxCell>
        <mxCell id="hP1Rm07FLvNimL8762Uq-9" value="&lt;font style=&quot;font-size: 10px&quot;&gt;6.插入成功&lt;/font&gt;" style="text;html=1;strokeColor=none;fillColor=none;align=center;verticalAlign=middle;whiteSpace=wrap;rounded=0;" vertex="1" parent="hP1Rm07FLvNimL8762Uq-7">
          <mxGeometry x="30" y="210" width="70" height="20" as="geometry" />
        </mxCell>
        <mxCell id="hP1Rm07FLvNimL8762Uq-10" value="EquipmentDao" style="shape=umlLifeline;perimeter=lifelinePerimeter;container=1;collapsible=0;recursiveResize=0;rounded=0;shadow=0;strokeWidth=1;" vertex="1" parent="1">
          <mxGeometry x="630" y="230" width="100" height="300" as="geometry" />
        </mxCell>
        <mxCell id="hP1Rm07FLvNimL8762Uq-11" value="" style="points=[];perimeter=orthogonalPerimeter;rounded=0;shadow=0;strokeWidth=1;" vertex="1" parent="hP1Rm07FLvNimL8762Uq-10">
          <mxGeometry x="45" y="70" width="10" height="190" as="geometry" />
        </mxCell>
        <mxCell id="hP1Rm07FLvNimL8762Uq-12" value="" style="endArrow=classic;html=1;exitX=1.148;exitY=0.103;exitDx=0;exitDy=0;exitPerimeter=0;entryX=0.117;entryY=0.102;entryDx=0;entryDy=0;entryPerimeter=0;" edge="1" parent="1" source="hP1Rm07FLvNimL8762Uq-3" target="hP1Rm07FLvNimL8762Uq-5">
          <mxGeometry width="50" height="50" relative="1" as="geometry">
            <mxPoint x="130" y="340" as="sourcePoint" />
            <mxPoint x="290" y="320" as="targetPoint" />
            <Array as="points" />
          </mxGeometry>
        </mxCell>
        <mxCell id="hP1Rm07FLvNimL8762Uq-13" value="&lt;div style=&quot;font-size: 10px&quot;&gt;&lt;font style=&quot;font-size: 10px&quot;&gt;1.添加设备&lt;br&gt;&lt;/font&gt;&lt;/div&gt;&lt;div style=&quot;font-size: 10px&quot;&gt;&lt;font style=&quot;font-size: 10px&quot;&gt;localhost:8080/html/usermanage.html&lt;br&gt;&lt;/font&gt;&lt;/div&gt;" style="text;html=1;strokeColor=none;fillColor=none;align=center;verticalAlign=middle;whiteSpace=wrap;rounded=0;" vertex="1" parent="1">
          <mxGeometry x="160" y="290" width="120" height="20" as="geometry" />
        </mxCell>
        <mxCell id="hP1Rm07FLvNimL8762Uq-14" value="" style="endArrow=classic;html=1;entryX=0.01;entryY=0.42;entryDx=0;entryDy=0;entryPerimeter=0;exitX=1.066;exitY=0.521;exitDx=0;exitDy=0;exitPerimeter=0;" edge="1" parent="1" source="hP1Rm07FLvNimL8762Uq-5">
          <mxGeometry width="50" height="50" relative="1" as="geometry">
            <mxPoint x="320" y="399" as="sourcePoint" />
            <mxPoint x="485.10000000000014" y="399.31000000000006" as="targetPoint" />
            <Array as="points" />
          </mxGeometry>
        </mxCell>
        <mxCell id="hP1Rm07FLvNimL8762Uq-15" value="" style="endArrow=classic;html=1;entryX=-0.039;entryY=0.629;entryDx=0;entryDy=0;entryPerimeter=0;" edge="1" parent="1" source="hP1Rm07FLvNimL8762Uq-8" target="hP1Rm07FLvNimL8762Uq-11">
          <mxGeometry width="50" height="50" relative="1" as="geometry">
            <mxPoint x="500" y="420" as="sourcePoint" />
            <mxPoint x="670" y="420" as="targetPoint" />
            <Array as="points" />
          </mxGeometry>
        </mxCell>
        <mxCell id="hP1Rm07FLvNimL8762Uq-16" value="" style="endArrow=classic;html=1;entryX=1.005;entryY=0.936;entryDx=0;entryDy=0;entryPerimeter=0;exitX=-0.088;exitY=0.935;exitDx=0;exitDy=0;exitPerimeter=0;" edge="1" parent="1" source="hP1Rm07FLvNimL8762Uq-5" target="hP1Rm07FLvNimL8762Uq-3">
          <mxGeometry width="50" height="50" relative="1" as="geometry">
            <mxPoint x="290" y="478" as="sourcePoint" />
            <mxPoint x="450" y="310" as="targetPoint" />
          </mxGeometry>
        </mxCell>
        <mxCell id="hP1Rm07FLvNimL8762Uq-17" value="" style="endArrow=classic;html=1;entryX=1.14;entryY=0.845;entryDx=0;entryDy=0;entryPerimeter=0;" edge="1" parent="1" source="hP1Rm07FLvNimL8762Uq-10" target="hP1Rm07FLvNimL8762Uq-5">
          <mxGeometry width="50" height="50" relative="1" as="geometry">
            <mxPoint x="569.0699999999999" y="460" as="sourcePoint" />
            <mxPoint x="310" y="460" as="targetPoint" />
          </mxGeometry>
        </mxCell>
        <mxCell id="hP1Rm07FLvNimL8762Uq-18" value="&lt;font style=&quot;font-size: 10px&quot;&gt;4.设备不存在&lt;/font&gt;" style="text;html=1;strokeColor=none;fillColor=none;align=center;verticalAlign=middle;whiteSpace=wrap;rounded=0;" vertex="1" parent="1">
          <mxGeometry x="360" y="380" width="65" height="20" as="geometry" />
        </mxCell>
        <mxCell id="hP1Rm07FLvNimL8762Uq-19" value="&lt;font style=&quot;font-size: 10px&quot;&gt;5.添加设备数据到相应的数据库&lt;/font&gt;" style="text;html=1;strokeColor=none;fillColor=none;align=center;verticalAlign=middle;whiteSpace=wrap;rounded=0;" vertex="1" parent="1">
          <mxGeometry x="510" y="400" width="150" height="20" as="geometry" />
        </mxCell>
        <mxCell id="hP1Rm07FLvNimL8762Uq-20" value="&lt;font style=&quot;font-size: 10px&quot;&gt;7.返回插入设备信息&lt;/font&gt;" style="text;html=1;strokeColor=none;fillColor=none;align=center;verticalAlign=middle;whiteSpace=wrap;rounded=0;" vertex="1" parent="1">
          <mxGeometry x="170" y="460" width="100" height="20" as="geometry" />
        </mxCell>
        <mxCell id="hP1Rm07FLvNimL8762Uq-22" value="&lt;font style=&quot;font-size: 10px&quot;&gt;2.检查是否该设备已经存在&lt;br&gt;&lt;/font&gt;" style="text;html=1;strokeColor=none;fillColor=none;align=center;verticalAlign=middle;whiteSpace=wrap;rounded=0;" vertex="1" parent="1">
          <mxGeometry x="360" y="320" width="130" height="20" as="geometry" />
        </mxCell>
        <mxCell id="hP1Rm07FLvNimL8762Uq-24" value="" style="endArrow=classic;html=1;entryX=1.005;entryY=0.936;entryDx=0;entryDy=0;entryPerimeter=0;exitX=-0.088;exitY=0.935;exitDx=0;exitDy=0;exitPerimeter=0;" edge="1" parent="1">
          <mxGeometry width="50" height="50" relative="1" as="geometry">
            <mxPoint x="304.54" y="370.0000000000001" as="sourcePoint" />
            <mxPoint x="125.47000000000007" y="370.19000000000005" as="targetPoint" />
          </mxGeometry>
        </mxCell>
        <mxCell id="hP1Rm07FLvNimL8762Uq-25" value="&lt;font style=&quot;font-size: 10px&quot;&gt;3.存在直接返回&lt;br&gt;&lt;/font&gt;" style="text;html=1;strokeColor=none;fillColor=none;align=center;verticalAlign=middle;whiteSpace=wrap;rounded=0;" vertex="1" parent="1">
          <mxGeometry x="180" y="350" width="80" height="20" as="geometry" />
        </mxCell>
      </root>
    </mxGraphModel>
  </diagram>
</mxfile>
